<?xml version="1.0" standalone="no"?>
<!DOCTYPE svg PUBLIC "-//W3C//DTD SVG 20010904//EN"
 "http://www.w3.org/TR/2001/REC-SVG-20010904/DTD/svg10.dtd">
<svg version="1.0" xmlns="http://www.w3.org/2000/svg"
 width="260.000000pt" height="260.000000pt" viewBox="0 0 260.000000 260.000000"
 preserveAspectRatio="xMidYMid meet">
<metadata>
Created by potrace 1.14, written by Peter Selinger 2001-2017
</metadata>
<g transform="translate(0.000000,260.000000) scale(0.100000,-0.100000)"
fill="#000000" stroke="none">
<path d="M1150 2593 c-290 -45 -514 -146 -713 -323 -289 -256 -441 -609 -432
-1000 2 -80 6 -158 10 -175 21 -99 28 -128 51 -200 141 -443 514 -772 987
-872 115 -24 381 -24 496 1 177 38 326 99 466 192 84 56 109 75 189 152 127
121 236 283 301 447 33 82 63 186 70 235 2 19 9 58 14 85 10 52 8 307 -3 360
-4 17 -11 53 -16 80 -63 312 -262 607 -539 800 -122 84 -333 173 -477 200 -10
2 -19 4 -19 5 0 9 -339 20 -385 13z"/>
</g>
</svg>
