<?xml version="1.0" standalone="no"?>
<!DOCTYPE svg PUBLIC "-//W3C//DTD SVG 20010904//EN"
 "http://www.w3.org/TR/2001/REC-SVG-20010904/DTD/svg10.dtd">
<svg version="1.0" xmlns="http://www.w3.org/2000/svg"
 width="1024.000000pt" height="1024.000000pt" viewBox="0 0 1024.000000 1024.000000"
 preserveAspectRatio="xMidYMid meet">
<metadata>
Created by potrace 1.14, written by Peter Selinger 2001-2017
</metadata>
<g transform="translate(0.000000,1024.000000) scale(0.100000,-0.100000)"
fill="#000000" stroke="none">
<path d="M6178 9043 c6 -2 18 -2 25 0 6 3 1 5 -13 5 -14 0 -19 -2 -12 -5z"/>
<path d="M6048 9033 c6 -2 18 -2 25 0 6 3 1 5 -13 5 -14 0 -19 -2 -12 -5z"/>
<path d="M6308 9033 c12 -2 30 -2 40 0 9 3 -1 5 -23 4 -22 0 -30 -2 -17 -4z"/>
<path d="M5988 9023 c6 -2 18 -2 25 0 6 3 1 5 -13 5 -14 0 -19 -2 -12 -5z"/>
<path d="M6383 9023 c9 -2 23 -2 30 0 6 3 -1 5 -18 5 -16 0 -22 -2 -12 -5z"/>
<path d="M5948 9013 c7 -3 16 -2 19 1 4 3 -2 6 -13 5 -11 0 -14 -3 -6 -6z"/>
<path d="M6448 9013 c7 -3 16 -2 19 1 4 3 -2 6 -13 5 -11 0 -14 -3 -6 -6z"/>
<path d="M5908 9003 c7 -3 16 -2 19 1 4 3 -2 6 -13 5 -11 0 -14 -3 -6 -6z"/>
<path d="M5735 8956 c-71 -24 -267 -95 -435 -159 -168 -63 -368 -137 -445
-165 -146 -52 -546 -201 -745 -277 -63 -24 -286 -107 -495 -185 -1153 -428
-1214 -456 -1413 -622 -351 -294 -507 -728 -417 -1153 15 -71 30 -143 33 -160
l5 -30 -23 20 c-39 34 -61 99 -67 196 l-6 89 -25 -37 c-14 -21 -39 -54 -56
-74 -54 -62 -66 -79 -58 -79 4 0 -6 -9 -21 -19 -16 -10 -29 -22 -29 -27 -1
-21 -11 -33 -21 -27 -6 4 -8 0 -4 -10 4 -11 -2 -22 -18 -33 -14 -9 -23 -20
-20 -24 2 -4 -4 -15 -15 -25 -11 -10 -20 -24 -20 -32 0 -8 -4 -12 -8 -9 -4 2
-14 1 -22 -5 -12 -7 -12 -9 -1 -9 8 0 1 -13 -17 -32 -17 -17 -29 -35 -26 -40
3 -4 0 -8 -6 -8 -12 0 -40 -24 -42 -37 -2 -13 -38 -69 -38 -59 0 13 -41 -42
-44 -58 -1 -7 -25 -42 -54 -78 -29 -36 -52 -73 -52 -81 0 -9 -6 -20 -13 -24
-11 -7 -37 -57 -70 -133 -6 -14 -17 -33 -25 -42 -8 -9 -17 -31 -22 -50 -5 -18
-16 -60 -25 -93 -9 -33 -17 -72 -17 -87 -1 -16 -5 -28 -10 -28 -12 0 -10 -198
2 -205 6 -3 10 -16 10 -28 0 -12 9 -35 20 -52 11 -16 20 -44 20 -62 0 -17 7
-38 15 -47 8 -8 15 -22 15 -31 0 -9 8 -32 19 -53 10 -20 22 -52 26 -70 4 -18
18 -45 31 -59 13 -14 24 -29 25 -32 0 -3 2 -15 3 -27 1 -11 12 -34 24 -51 16
-23 18 -33 10 -41 -9 -9 -9 -12 0 -12 7 0 12 -7 12 -16 0 -21 51 -124 62 -124
4 0 8 -9 8 -20 0 -11 9 -29 20 -40 11 -11 20 -31 20 -45 0 -14 10 -45 22 -68
21 -40 24 -47 27 -73 0 -5 9 -19 19 -30 10 -11 22 -41 25 -68 5 -32 15 -57 31
-73 14 -14 22 -31 19 -39 -8 -21 5 -62 27 -84 12 -12 15 -20 7 -20 -7 0 -8 -3
-2 -8 18 -13 85 -162 85 -190 0 -15 9 -44 20 -65 11 -20 20 -43 20 -51 0 -8 8
-22 17 -31 9 -10 18 -29 19 -42 2 -14 6 -33 10 -42 4 -9 8 -18 9 -21 12 -37
27 -60 37 -60 9 0 8 -3 -2 -10 -12 -7 -12 -10 -1 -10 8 0 11 -6 7 -16 -4 -9 2
-31 12 -48 22 -38 35 -83 24 -89 -4 -2 -1 -2 5 -1 7 2 17 -14 23 -36 6 -22 15
-42 20 -45 6 -3 10 -15 10 -26 0 -11 12 -43 27 -72 15 -30 28 -73 30 -102 2
-27 10 -56 17 -65 8 -8 16 -24 18 -35 2 -11 10 -19 16 -17 7 1 12 -10 12 -27
0 -16 7 -37 16 -45 8 -9 11 -16 5 -16 -6 0 -8 -8 -4 -17 14 -43 48 -109 63
-123 8 -8 17 -31 19 -50 1 -19 11 -50 22 -68 10 -18 19 -45 19 -60 0 -17 8
-32 21 -41 18 -10 19 -15 8 -22 -11 -7 -12 -9 0 -9 7 0 11 -6 7 -15 -3 -8 -1
-15 4 -15 6 0 10 -9 10 -19 0 -11 4 -22 10 -26 5 -3 7 -12 3 -20 -3 -9 1 -15
8 -15 12 0 12 -2 0 -9 -9 -6 -10 -11 -2 -15 6 -4 9 -12 6 -17 -4 -5 -2 -9 4
-9 6 0 8 -6 5 -14 -3 -8 -1 -17 5 -21 6 -3 11 -19 11 -34 0 -15 5 -32 12 -39
9 -9 9 -12 -2 -12 -12 0 -12 -2 -2 -8 7 -5 14 -23 17 -42 2 -18 9 -36 16 -40
6 -4 8 -13 5 -19 -4 -6 -2 -11 4 -11 7 0 9 -8 5 -20 -4 -13 -2 -20 6 -20 7 0
10 -3 7 -6 -3 -3 3 -28 13 -56 10 -28 16 -55 13 -59 -3 -5 -1 -9 5 -9 13 0 42
-55 34 -64 -4 -3 1 -12 11 -19 10 -7 18 -27 18 -45 1 -18 4 -32 7 -32 6 0 15
-19 36 -75 5 -11 7 -26 6 -32 -1 -7 2 -13 7 -13 5 0 15 -20 21 -45 6 -25 16
-43 21 -40 11 7 32 -29 23 -39 -4 -3 2 -13 13 -21 11 -9 14 -14 6 -15 -7 0
-12 -8 -10 -17 4 -24 39 -64 50 -57 4 3 8 -3 8 -13 0 -10 20 -38 44 -63 24
-25 42 -48 40 -52 -3 -4 2 -5 10 -2 12 5 16 0 16 -19 0 -25 30 -50 100 -83 14
-7 21 -13 17 -13 -4 -1 4 -12 18 -26 14 -14 25 -31 25 -38 0 -8 4 -7 9 2 8 12
16 10 48 -12 50 -34 211 -109 221 -103 5 3 27 -6 51 -20 24 -13 49 -24 56 -24
7 0 15 -5 17 -11 4 -12 241 -31 265 -22 8 3 13 -3 13 -13 0 -14 2 -16 9 -6 6
10 48 15 157 19 82 2 172 9 199 14 28 6 65 10 83 10 17 -1 32 3 32 8 0 5 23
11 50 15 28 4 50 11 50 15 0 5 16 12 35 15 21 4 33 11 29 18 -4 6 1 8 14 4 11
-4 29 -2 39 3 30 17 138 51 160 51 11 0 30 9 42 20 13 10 43 22 66 26 24 3 51
15 61 25 11 13 24 17 40 13 22 -6 34 9 17 19 -5 2 -2 2 5 1 13 -4 43 10 72 33
8 6 31 16 50 21 63 19 110 38 122 50 7 7 18 12 25 12 8 0 34 11 60 24 25 14
51 22 58 20 7 -3 15 3 17 14 4 14 21 22 67 32 33 7 61 17 61 21 0 5 8 9 18 9
9 0 31 9 47 20 37 25 92 50 112 50 8 0 26 9 40 20 14 11 36 20 49 20 12 0 29
6 37 14 8 8 24 12 35 9 13 -3 28 3 41 16 12 12 32 21 46 21 14 0 25 5 25 11 0
8 5 8 15 -1 13 -10 15 -9 15 9 0 17 6 21 33 21 19 0 54 11 80 23 25 13 44 20
41 15 -4 -5 3 -4 15 4 12 7 21 17 21 21 0 5 7 7 15 3 8 -3 15 -1 15 5 0 6 7 8
16 5 12 -4 15 -2 10 9 -5 13 -2 14 17 4 12 -6 19 -8 15 -4 -10 10 91 59 122
60 14 0 27 3 30 6 3 3 37 18 75 34 39 15 74 31 80 36 5 5 22 9 38 9 16 0 42 9
58 21 16 11 36 18 44 15 8 -3 15 -1 15 4 0 6 6 9 13 8 6 -2 11 2 10 8 -1 7 6
10 17 7 11 -3 20 0 20 6 0 6 9 11 19 11 11 0 23 5 26 10 4 6 16 8 27 4 14 -4
18 -2 14 5 -4 6 0 11 11 11 10 0 38 14 63 30 28 19 58 30 80 30 25 0 39 6 48
21 10 16 19 19 43 14 17 -4 29 -2 29 4 0 5 10 13 21 16 17 6 19 9 8 16 -9 6
-3 7 17 3 19 -4 34 -1 38 5 4 6 18 11 30 11 13 0 29 7 36 15 7 8 19 15 27 15
8 0 11 5 7 11 -5 9 1 10 20 5 14 -3 26 -3 26 2 0 4 29 19 65 33 36 13 65 27
65 31 0 3 10 4 22 0 14 -3 19 -2 14 6 -4 8 0 12 11 12 15 0 16 2 3 11 -13 9
-12 10 2 5 10 -3 30 1 45 9 15 8 34 15 41 15 7 0 10 5 6 12 -4 6 -3 8 4 5 15
-10 42 3 42 19 0 11 7 13 27 8 19 -5 30 -2 39 11 8 10 16 16 20 13 3 -4 21 8
41 27 23 21 41 31 54 28 15 -4 18 -2 13 11 -4 11 -1 16 10 16 9 0 16 5 16 11
0 6 9 8 21 4 13 -4 19 -3 16 2 -4 6 16 20 43 33 27 13 47 27 44 32 -3 4 4 8
15 8 11 0 22 9 26 20 4 11 11 18 16 15 5 -4 9 1 9 9 0 9 12 19 26 22 15 4 23
12 20 19 -6 16 40 49 54 40 6 -3 10 1 10 9 0 9 4 16 10 16 5 0 7 6 4 14 -4 11
0 13 18 9 18 -4 20 -3 8 6 -13 9 -12 11 3 11 10 0 15 5 12 10 -3 6 1 10 10 10
11 0 15 5 11 15 -3 8 -2 14 2 12 4 -1 20 10 35 26 15 15 23 27 17 27 -6 0 -8
5 -5 10 4 6 11 7 17 4 6 -4 8 -3 5 3 -3 5 7 20 23 33 15 13 26 28 24 35 -3 6
7 17 21 25 18 10 22 16 13 21 -9 6 -8 10 5 15 10 4 16 13 13 20 -3 8 -1 14 4
14 12 0 41 56 33 64 -4 3 -1 6 6 6 7 0 20 7 28 16 14 13 14 17 2 26 -10 7 -8
8 9 5 19 -5 21 -3 11 9 -9 11 -8 14 6 14 11 0 15 5 11 16 -3 8 -2 12 4 9 6 -3
10 0 10 8 0 8 7 18 16 21 9 4 14 13 10 21 -4 10 2 19 17 25 12 5 16 9 8 9 -9
1 -4 10 13 26 15 14 24 30 21 35 -3 6 -1 10 4 10 6 0 11 5 11 11 0 6 6 16 13
23 28 29 50 63 96 147 13 24 31 53 40 64 15 17 46 67 144 235 26 44 21 40 -39
-36 -51 -63 -118 -127 -109 -102 4 9 0 15 -8 15 -22 0 -76 46 -76 65 -1 9 -10
19 -20 23 -11 3 -21 16 -23 28 -2 12 -9 21 -16 20 -21 -5 -13 5 25 28 78 48
215 172 288 260 93 111 166 257 224 448 69 225 75 391 20 603 -19 76 -108 312
-115 306 -1 -2 19 -62 46 -133 55 -147 90 -302 90 -398 0 -182 -53 -363 -164
-557 -59 -104 -89 -143 -181 -238 -180 -187 -353 -288 -726 -426 -52 -19 -128
-49 -169 -66 -41 -17 -124 -49 -185 -70 -99 -35 -570 -217 -620 -239 -11 -5
-42 -17 -70 -27 -27 -9 -54 -21 -59 -26 -13 -11 -26 -10 -26 1 0 5 17 15 38
21 20 7 41 16 46 21 6 5 19 9 30 9 24 1 59 24 49 33 -3 4 -1 7 5 7 8 0 12 21
12 60 0 53 -2 60 -20 60 -17 0 -20 7 -20 40 0 33 -3 40 -20 40 -17 0 -20 7
-20 39 0 22 -5 43 -12 47 -7 4 -8 3 -4 -4 5 -8 -5 -12 -31 -12 -28 0 -34 3
-23 10 35 22 -23 2 -125 -45 -16 -8 -57 -23 -90 -34 -33 -11 -85 -30 -115 -41
-30 -12 -84 -32 -120 -45 -106 -38 -190 -70 -280 -107 -47 -19 -182 -72 -300
-118 -118 -46 -388 -152 -600 -235 -433 -172 -422 -168 -545 -191 -104 -19
-279 -14 -383 11 -88 21 -193 67 -273 121 -84 56 -219 198 -265 280 -38 69
-115 258 -263 649 -57 149 -118 306 -136 350 -18 44 -59 148 -90 230 -32 83
-95 249 -142 370 -47 121 -100 261 -118 310 -18 50 -63 167 -100 260 -130 330
-176 452 -244 640 -38 105 -94 255 -124 335 -133 351 -152 429 -144 575 10
163 65 331 147 450 30 43 155 172 206 213 51 40 47 23 -5 -20 -69 -58 -131
-143 -190 -263 -58 -118 -76 -186 -93 -352 -16 -163 -5 -225 84 -473 38 -107
76 -214 85 -238 8 -24 17 -41 19 -39 2 2 -27 90 -65 195 -84 231 -86 241 -68
284 13 30 22 36 78 53 185 53 400 135 432 163 9 8 17 11 17 7 0 -4 9 0 21 11
21 19 21 18 -1 -19 -24 -40 -24 -30 4 -234 l16 -112 -31 -53 c-62 -107 -314
-477 -323 -475 -5 2 -18 27 -29 55 -11 29 -22 51 -24 48 -4 -3 78 -220 267
-711 152 -395 216 -560 257 -670 24 -66 60 -158 78 -205 41 -103 241 -624 340
-885 40 -104 87 -226 104 -270 93 -233 211 -371 405 -476 42 -23 79 -40 81
-38 2 2 -35 24 -83 49 -99 52 -222 161 -284 253 -46 68 -99 184 -168 372 -27
72 -92 243 -145 380 -100 257 -218 565 -310 810 -29 77 -103 272 -164 433 -61
161 -111 296 -111 300 1 4 12 -14 26 -40 13 -27 31 -48 38 -48 14 0 86 -81 86
-97 0 -4 10 -20 23 -35 47 -54 102 -135 126 -183 11 -22 30 -56 44 -76 13 -20
57 -100 96 -177 39 -78 98 -185 131 -239 33 -53 60 -101 60 -107 0 -5 11 -23
24 -40 12 -17 31 -47 41 -66 10 -19 41 -71 70 -115 29 -44 70 -114 92 -155 41
-79 105 -182 134 -215 10 -11 37 -55 61 -98 24 -43 53 -97 66 -120 13 -23 33
-52 45 -65 11 -12 30 -38 41 -57 38 -63 94 -140 115 -159 12 -11 21 -25 21
-32 0 -18 96 -109 158 -150 l52 -35 1 -72 c0 -62 8 -143 21 -222 2 -11 10 -23
18 -27 35 -16 -169 -6 -235 12 -82 21 -102 18 -24 -4 150 -43 321 -45 464 -7
73 19 269 92 485 181 69 28 220 87 335 132 116 44 309 120 430 168 122 49 331
131 465 184 135 52 328 128 430 169 102 41 263 105 358 142 95 38 170 70 168
72 -2 3 -87 -28 -188 -68 -223 -88 -378 -141 -378 -129 0 5 4 10 9 12 15 5
177 242 248 363 36 61 74 121 84 135 35 47 70 121 62 133 -11 17 -13 217 -2
217 5 0 9 5 9 11 0 5 -6 7 -12 3 -7 -4 1 8 19 27 53 56 73 112 73 208 0 69 -5
94 -27 143 -21 48 -24 63 -15 77 33 46 60 113 70 171 23 133 44 349 38 382 -8
46 -63 101 -122 124 -60 23 -109 13 -258 -51 -59 -25 -111 -44 -114 -41 -2 3
3 8 12 12 23 9 68 77 56 84 -10 6 4 119 20 155 14 31 48 272 65 455 23 239 45
433 50 439 3 2 5 -7 5 -20 0 -14 29 -79 65 -145 36 -65 65 -125 65 -133 0 -7
11 -34 24 -60 43 -83 86 -183 86 -200 0 -9 4 -21 9 -27 14 -14 111 -234 111
-252 0 -8 9 -33 19 -56 10 -23 25 -61 32 -86 7 -25 20 -61 30 -80 9 -19 23
-51 29 -70 23 -67 82 -205 106 -251 13 -26 24 -54 24 -63 0 -9 4 -24 10 -34 5
-9 34 -82 65 -162 31 -80 60 -153 65 -162 6 -10 10 -24 10 -32 0 -8 11 -37 25
-64 14 -28 25 -57 25 -65 0 -15 16 -55 59 -149 11 -26 21 -52 21 -58 0 -5 4
-18 9 -28 5 -9 44 -90 87 -179 44 -93 82 -160 88 -157 6 3 2 -2 -9 -11 -34
-28 -102 -59 -308 -140 -109 -43 -196 -79 -194 -81 2 -3 49 13 103 34 54 21
144 56 199 77 244 93 339 159 463 320 25 33 49 62 52 65 22 20 65 103 100 196
18 47 32 183 26 251 -10 113 0 86 -286 788 -66 165 -173 428 -237 585 -130
321 -145 357 -418 1025 -397 970 -500 1200 -571 1285 -80 94 -165 160 -278
215 -134 65 -223 85 -378 85 -140 0 -255 -26 -472 -106 -247 -92 -780 -291
-946 -354 -140 -53 -215 -81 -570 -210 -58 -21 -184 -68 -280 -105 -96 -36
-274 -102 -395 -146 -121 -44 -255 -93 -297 -110 -43 -16 -115 -43 -160 -59
-108 -37 -219 -78 -347 -128 -92 -37 -103 -39 -98 -22 4 15 0 20 -14 20 -16 0
-19 7 -19 40 0 33 -3 40 -20 40 -17 0 -20 7 -20 40 0 33 3 40 20 40 17 0 20 7
20 40 l0 41 -42 -1 c-64 -2 -138 1 -138 6 0 9 167 87 277 129 65 25 134 53
153 61 63 29 480 184 629 235 30 11 59 23 65 28 6 4 20 11 31 14 11 3 146 53
300 112 154 59 375 142 490 185 307 114 674 251 885 331 102 39 280 104 395
144 116 41 203 74 195 74 -8 1 -73 -19 -145 -43z m1081 -1331 c80 -23 124 -87
124 -177 0 -49 -15 -214 -40 -438 -11 -99 -30 -334 -55 -680 -32 -437 -39
-500 -57 -500 -5 0 -28 -13 -51 -30 -23 -16 -98 -52 -167 -79 -481 -188 -1149
-448 -1500 -583 -85 -33 -191 -74 -235 -90 -44 -16 -89 -33 -100 -38 -11 -5
-38 -17 -60 -27 -22 -9 -43 -19 -47 -21 -5 -2 -8 1 -8 7 0 6 8 11 18 11 15 0
15 2 2 11 -13 9 -13 10 0 8 8 -1 26 -1 40 0 23 1 23 3 8 14 -15 12 -10 21 52
85 41 42 68 79 67 91 -1 18 -3 18 -55 -5 -30 -13 -61 -24 -69 -24 -8 0 -12 -4
-9 -8 2 -4 -4 -9 -15 -9 -11 -1 -69 -20 -129 -43 -60 -23 -114 -39 -119 -36
-5 3 -41 60 -81 126 -41 66 -77 117 -83 113 -6 -3 -7 -1 -3 5 7 11 -107 205
-116 197 -3 -3 -5 1 -5 8 0 6 -4 20 -8 30 -5 13 -2 17 14 17 24 0 39 -22 210
-306 l96 -161 165 67 c91 36 228 92 306 123 77 31 147 57 155 57 27 0 27 10
-1 68 -15 31 -49 107 -75 167 -41 94 -131 283 -140 293 -2 2 -16 -3 -32 -11
-28 -14 -154 -62 -448 -170 -82 -31 -172 -65 -198 -77 -26 -12 -53 -20 -59
-18 -15 5 69 46 152 74 36 12 57 23 48 23 -53 3 10 50 74 56 28 3 57 10 65 16
7 6 13 8 13 3 0 -5 4 -2 10 6 6 9 5 17 -1 21 -6 3 3 9 20 12 38 8 42 36 6 38
-14 1 -40 2 -57 3 -18 1 -57 -9 -86 -21 -116 -50 -300 -113 -315 -107 -7 2
-32 36 -56 74 -25 39 -46 68 -49 65 -3 -2 1 -11 8 -20 10 -12 10 -15 -5 -15
-14 0 -16 6 -12 28 5 28 -33 107 -41 84 -7 -23 -22 -12 -20 16 2 28 -19 78
-29 68 -3 -3 2 -17 11 -31 19 -30 14 -33 -13 -6 -13 13 -16 23 -9 35 6 11 4
23 -7 39 l-16 22 6 -26 c4 -15 2 -29 -3 -33 -5 -3 -7 -17 -4 -31 l5 -26 -79 3
c-73 3 -79 5 -82 26 -2 14 -10 22 -22 22 -31 0 -33 -18 -6 -66 30 -54 33 -66
8 -33 -29 38 -72 116 -67 121 3 3 -6 15 -20 28 -14 13 -25 28 -25 33 0 6 -18
41 -40 79 -22 39 -37 75 -33 80 3 6 1 8 -4 5 -13 -8 -86 111 -77 125 4 6 2 8
-4 5 -6 -4 -30 27 -57 73 l-47 80 -122 -6 c-113 -6 -123 -5 -159 16 -51 30
-64 84 -32 133 27 41 50 47 203 48 127 1 287 13 252 18 -8 2 -85 3 -170 3 -85
0 -146 1 -135 4 11 2 45 9 75 15 141 29 503 141 600 186 19 9 48 20 65 24 16
4 62 19 100 34 39 15 88 34 110 42 22 7 54 20 72 28 17 8 36 15 42 15 6 0 19
4 29 10 9 5 55 23 102 40 47 17 108 40 135 50 28 11 55 20 60 20 11 0 110 37
139 52 10 5 100 36 200 69 99 33 190 64 201 68 46 21 245 80 370 111 140 35
350 52 474 40 105 -11 164 -28 266 -75 l69 -32 -109 -42 c-296 -115 -901 -342
-1085 -407 -69 -24 -210 -78 -315 -119 -104 -41 -305 -117 -445 -169 -140 -51
-338 -126 -439 -165 -101 -40 -187 -68 -191 -64 -5 4 -49 63 -99 131 -50 67
-94 122 -97 122 -3 0 4 -12 15 -27 12 -16 58 -78 102 -140 l81 -111 62 23 c33
13 167 65 296 115 129 51 330 127 445 170 116 42 293 109 395 148 102 38 444
167 760 285 624 234 917 346 1050 401 95 40 124 43 196 21z m-4174 -241 c-22
-17 -39 -18 -39 -1 0 6 13 12 29 13 25 1 26 0 10 -12z m1268 -1494 c0 -5 -4
-10 -9 -10 -6 0 -13 5 -16 10 -3 6 1 10 9 10 9 0 16 -4 16 -10z m-139 -217
c13 -16 12 -17 -3 -4 -10 7 -18 15 -18 17 0 8 8 3 21 -13z m29 -33 c0 -5 -4
-10 -10 -10 -5 0 -10 5 -10 10 0 6 5 10 10 10 6 0 10 -4 10 -10z m3290 -212
c51 -26 90 -78 90 -118 0 -20 -12 -38 -40 -64 -48 -43 -64 -51 -315 -152 -104
-42 -260 -105 -345 -140 -85 -34 -321 -128 -525 -209 -203 -80 -379 -150 -390
-155 -67 -33 -242 -96 -253 -92 -8 3 -2 10 17 20 26 12 31 20 31 48 0 27 -4
34 -20 34 -17 0 -20 7 -20 40 0 22 -4 40 -10 40 -5 0 -10 9 -10 19 0 11 -6 21
-12 24 -16 5 -71 -10 -123 -33 -40 -18 -195 -79 -350 -138 -44 -17 -83 -28
-86 -26 -4 2 -35 48 -68 102 -33 54 -81 129 -106 167 -49 75 -52 85 -31 85 19
0 50 -41 136 -178 38 -59 74 -115 82 -125 12 -17 32 -10 323 106 171 69 321
129 335 135 46 21 1485 595 1535 613 66 24 102 24 155 -3z m-2520 -482 c0 -3
-4 -8 -10 -11 -5 -3 -10 -1 -10 4 0 6 5 11 10 11 6 0 10 -2 10 -4z m2317 -67
c104 -35 185 -120 217 -229 29 -96 25 -109 -56 -190 -103 -102 -154 -125 -283
-125 -83 0 -107 4 -140 22 -132 71 -177 201 -119 338 14 33 26 68 26 78 -1 10
8 23 19 30 10 6 19 17 19 24 0 17 40 42 92 58 65 20 155 18 225 -6z m-1647
-179 c0 -5 -8 -10 -17 -10 -15 0 -16 2 -3 10 19 12 20 12 20 0z m-15 -530 c40
-16 76 -39 111 -75 62 -61 79 -92 93 -167 9 -51 8 -61 -12 -99 -30 -55 -47
-61 -47 -16 0 20 -3 43 -7 53 -4 11 -2 15 4 11 16 -10 -3 77 -27 120 -20 38
-21 38 -17 8 2 -16 2 -24 0 -17 -3 6 -9 12 -15 12 -6 0 -8 11 -6 25 3 14 1 28
-5 32 -6 3 -7 1 -3 -5 4 -7 2 -12 -3 -12 -6 0 -11 8 -11 19 0 20 -27 48 -37
37 -3 -3 0 -6 7 -6 7 0 11 -2 8 -5 -11 -11 -58 7 -58 22 0 8 5 11 12 7 7 -5 8
-3 3 5 -4 7 -16 11 -26 8 -11 -3 -17 -2 -14 3 2 4 -9 10 -26 14 -55 11 -116 6
-178 -13 -34 -10 -62 -16 -64 -12 -14 28 18 54 88 72 52 14 166 3 230 -21z
m1815 -98 c0 -5 -7 -17 -15 -28 -14 -18 -14 -17 -4 9 12 27 19 34 19 19z
m-1032 -384 c6 -8 12 -87 14 -183 3 -166 4 -171 31 -218 16 -27 38 -52 49 -56
18 -6 15 -9 -19 -23 -21 -9 -115 -47 -209 -86 -94 -39 -312 -125 -485 -191
-173 -65 -331 -127 -353 -136 -21 -9 -40 -14 -42 -12 -2 2 20 35 49 74 28 39
58 79 64 89 273 410 291 440 298 509 2 22 11 60 18 85 13 42 17 46 68 61 56
17 146 36 354 75 146 27 150 27 163 12z m652 -358 c0 -5 -4 -10 -9 -10 -6 0
-13 5 -16 10 -3 6 1 10 9 10 9 0 16 -4 16 -10z"/>
<path d="M6619 7365 c-30 -16 -220 -91 -484 -190 -99 -37 -250 -95 -335 -128
-85 -33 -177 -68 -203 -77 -33 -12 -43 -19 -32 -24 18 -6 67 -108 169 -352
l68 -161 176 70 c97 38 267 106 377 149 110 44 212 82 228 85 22 4 27 11 27
34 0 15 9 155 20 310 12 155 20 285 18 289 -2 5 -15 2 -29 -5z"/>
<path d="M5270 6853 c-198 -79 -544 -211 -570 -218 l-25 -8 23 -8 c24 -9 65
-90 191 -376 l63 -142 76 29 c42 15 122 46 177 68 220 87 393 152 409 152 9 0
16 3 16 8 0 21 -224 542 -234 541 -6 -1 -63 -21 -126 -46z"/>
<path d="M2957 6683 c-4 -3 -7 -11 -7 -17 0 -7 3 -6 8 1 6 9 59 13 187 16
l180 2 -181 3 c-99 1 -184 -1 -187 -5z"/>
<path d="M3156 6651 c-3 -5 1 -11 9 -15 9 -3 15 0 15 9 0 16 -16 20 -24 6z"/>
<path d="M4515 6569 c-11 -4 -137 -52 -280 -105 -143 -53 -321 -121 -395 -151
-74 -31 -140 -56 -147 -56 -23 -1 -2 -17 23 -17 30 0 46 -22 212 -287 119
-192 128 -204 152 -198 14 4 97 35 185 70 357 142 498 195 516 195 18 0 17 3
-6 41 -15 22 -59 118 -100 212 -41 95 -89 202 -107 238 -29 58 -36 66 -53 58z"/>
<path d="M3028 6553 c7 -3 16 -2 19 1 4 3 -2 6 -13 5 -11 0 -14 -3 -6 -6z"/>
<path d="M3088 6553 c12 -2 30 -2 40 0 9 3 -1 5 -23 4 -22 0 -30 -2 -17 -4z"/>
<path d="M6525 6511 c-33 -15 -200 -83 -372 -151 l-312 -124 19 -21 c20 -22
96 -186 166 -357 21 -54 43 -98 47 -98 5 0 105 38 223 85 119 47 227 85 240
85 21 0 24 5 24 33 0 34 27 446 34 530 3 26 1 47 -2 47 -4 -1 -34 -13 -67 -29z"/>
<path d="M3523 6487 c0 -8 6 -14 14 -14 9 0 10 4 2 14 -6 7 -12 13 -14 13 -1
0 -2 -6 -2 -13z"/>
<path d="M3596 6421 c-4 -5 3 -7 14 -4 23 6 26 13 6 13 -8 0 -17 -4 -20 -9z"/>
<path d="M3386 6337 c3 -10 9 -15 12 -12 3 3 0 11 -7 18 -10 9 -11 8 -5 -6z"/>
<path d="M3720 6188 c0 -8 10 -23 22 -34 l21 -19 -18 30 c-26 41 -25 40 -25
23z"/>
<path d="M5645 6168 c-11 -7 -69 -31 -130 -54 -134 -51 -482 -192 -503 -203
-13 -7 -11 -10 7 -16 24 -7 51 -57 161 -302 l72 -162 77 28 c81 31 139 53 378
150 84 33 162 61 173 61 24 0 22 16 -13 85 -17 34 -44 97 -164 388 -17 39 -26
43 -58 25z"/>
<path d="M3770 6110 c6 -11 13 -20 16 -20 2 0 0 9 -6 20 -6 11 -13 20 -16 20
-2 0 0 -9 6 -20z"/>
<path d="M3683 6043 c-15 -3 -23 -12 -23 -24 0 -15 7 -19 39 -19 33 0 73 23
60 34 -9 7 -55 13 -76 9z"/>
<path d="M4575 5910 c-3 -5 1 -10 9 -10 9 0 16 5 16 10 0 6 -4 10 -9 10 -6 0
-13 -4 -16 -10z"/>
<path d="M4542 5901 c-11 -7 -11 -9 2 -14 10 -4 16 -1 16 8 0 17 -1 17 -18 6z"/>
<path d="M4495 5880 c-16 -7 -17 -9 -3 -9 9 -1 19 -7 21 -13 3 -7 6 -3 6 10 1
12 0 22 -1 21 -2 0 -12 -4 -23 -9z"/>
<path d="M5350 4760 c-9 -6 -10 -10 -3 -10 6 0 15 5 18 10 8 12 4 12 -15 0z"/>
<path d="M6545 8990 c11 -5 27 -9 35 -9 9 0 8 4 -5 9 -11 5 -27 9 -35 9 -9 0
-8 -4 5 -9z"/>
<path d="M6740 8925 c14 -8 30 -14 35 -14 6 0 -1 6 -15 14 -14 8 -29 14 -35
14 -5 0 1 -6 15 -14z"/>
<path d="M7035 8750 c10 -11 20 -20 23 -20 3 0 -3 9 -13 20 -10 11 -20 20 -23
20 -3 0 3 -9 13 -20z"/>
<path d="M7430 8195 c0 -5 5 -17 10 -25 5 -8 10 -10 10 -5 0 6 -5 17 -10 25
-5 8 -10 11 -10 5z"/>
<path d="M2644 7734 c-17 -14 -17 -15 -1 -10 10 3 23 6 28 6 5 0 9 5 9 10 0
14 -13 12 -36 -6z"/>
<path d="M7720 7505 c0 -5 5 -17 10 -25 5 -8 10 -10 10 -5 0 6 -5 17 -10 25
-5 8 -10 11 -10 5z"/>
<path d="M7750 7435 c0 -5 5 -17 10 -25 5 -8 10 -10 10 -5 0 6 -5 17 -10 25
-5 8 -10 11 -10 5z"/>
<path d="M7800 7315 c0 -5 5 -17 10 -25 5 -8 10 -10 10 -5 0 6 -5 17 -10 25
-5 8 -10 11 -10 5z"/>
<path d="M7900 7075 c0 -5 5 -17 10 -25 5 -8 10 -10 10 -5 0 6 -5 17 -10 25
-5 8 -10 11 -10 5z"/>
<path d="M7922 7025 c0 -13 56 -133 57 -120 0 6 -13 37 -29 70 -15 33 -28 56
-28 50z"/>
<path d="M7986 6870 c3 -14 11 -32 16 -40 6 -10 7 -7 2 10 -3 14 -11 32 -16
40 -6 10 -7 7 -2 -10z"/>
<path d="M8014 6800 c9 -32 39 -101 43 -97 2 3 -8 29 -22 58 -14 30 -23 47
-21 39z"/>
<path d="M8061 6685 c0 -5 6 -21 14 -35 8 -14 14 -20 14 -15 0 6 -6 21 -14 35
-8 14 -14 21 -14 15z"/>
<path d="M8090 6615 c0 -5 5 -17 10 -25 5 -8 10 -10 10 -5 0 6 -5 17 -10 25
-5 8 -10 11 -10 5z"/>
<path d="M8110 6565 c0 -5 5 -17 10 -25 5 -8 10 -10 10 -5 0 6 -5 17 -10 25
-5 8 -10 11 -10 5z"/>
<path d="M8140 6495 c0 -5 5 -17 10 -25 5 -8 10 -10 10 -5 0 6 -5 17 -10 25
-5 8 -10 11 -10 5z"/>
<path d="M8162 6440 c24 -64 61 -150 64 -147 5 4 -53 148 -63 156 -3 3 -4 -1
-1 -9z"/>
<path d="M8231 6278 c-1 -12 31 -89 35 -85 3 2 -4 24 -15 48 -11 24 -20 41
-20 37z"/>
<path d="M8272 6170 c24 -64 61 -150 64 -147 5 4 -53 148 -63 156 -3 3 -4 -1
-1 -9z"/>
<path d="M8340 6008 c0 -2 50 -128 111 -279 61 -151 127 -314 146 -362 19 -49
37 -86 39 -84 3 2 -20 64 -50 138 -231 572 -246 607 -246 587z"/>
<path d="M2451 5930 c0 -8 4 -22 9 -30 12 -18 12 -2 0 25 -6 13 -9 15 -9 5z"/>
<path d="M8641 5265 c0 -5 6 -21 14 -35 8 -14 14 -20 14 -15 0 6 -6 21 -14 35
-8 14 -14 21 -14 15z"/>
<path d="M7327 3687 c-59 -22 -105 -42 -103 -44 4 -4 188 61 214 76 31 19 -2
9 -111 -32z"/>
<path d="M6765 3410 c-3 -6 1 -7 9 -4 18 7 21 14 7 14 -6 0 -13 -4 -16 -10z"/>
<path d="M6840 3119 c0 -5 14 -9 32 -9 36 0 31 12 -7 16 -14 1 -25 -2 -25 -7z"/>
<path d="M7545 2180 c-16 -7 -17 -9 -3 -9 9 -1 20 4 23 9 7 11 7 11 -20 0z"/>
</g>
</svg>
